<mxfile host="65bd71144e">
    <diagram id="zILrABfxXsvs_dOevO_L" name="Page-1">
        <mxGraphModel dx="1707" dy="465" grid="1" gridSize="10" guides="1" tooltips="1" connect="1" arrows="1" fold="1" page="1" pageScale="1" pageWidth="850" pageHeight="1100" math="0" shadow="0">
            <root>
                <mxCell id="0"/>
                <mxCell id="1" parent="0"/>
                <mxCell id="4" value="&lt;font style=&quot;font-size: 15px&quot;&gt;Stroke&lt;/font&gt;" style="ellipse;whiteSpace=wrap;html=1;fillColor=#76608a;strokeColor=#432D57;fontColor=#ffffff;" parent="1" vertex="1">
                    <mxGeometry x="470" y="610" width="120" height="70" as="geometry"/>
                </mxCell>
                <mxCell id="79" style="edgeStyle=none;html=1;fontSize=15;fontColor=#FFFFFF;" parent="1" source="11" target="77" edge="1">
                    <mxGeometry relative="1" as="geometry"/>
                </mxCell>
                <mxCell id="11" value="&lt;font style=&quot;font-size: 15px&quot;&gt;Heart disease&lt;br&gt;(eg. CAD, CHD...)&lt;br&gt;&lt;/font&gt;" style="ellipse;whiteSpace=wrap;html=1;fillColor=#647687;fontColor=#ffffff;strokeColor=#FF9999;strokeWidth=3;" parent="1" vertex="1">
                    <mxGeometry x="130" y="180" width="130" height="70" as="geometry"/>
                </mxCell>
                <mxCell id="19" value="&lt;span style=&quot;font-size: 15px&quot;&gt;Ever married&lt;/span&gt;" style="ellipse;whiteSpace=wrap;html=1;fillColor=#f5f5f5;fontColor=#333333;strokeColor=#FF9999;strokeWidth=3;" parent="1" vertex="1">
                    <mxGeometry x="-170" y="330" width="120" height="70" as="geometry"/>
                </mxCell>
                <mxCell id="71" style="edgeStyle=none;html=1;dashed=1;" parent="1" source="20" target="21" edge="1">
                    <mxGeometry relative="1" as="geometry"/>
                </mxCell>
                <mxCell id="72" value="Stress ?&lt;br style=&quot;font-size: 12px;&quot;&gt;Work types in the dataset&lt;br style=&quot;font-size: 12px;&quot;&gt;are too vague to be correlated&lt;br style=&quot;font-size: 12px;&quot;&gt;with stroke risks" style="edgeLabel;html=1;align=center;verticalAlign=middle;resizable=0;points=[];fontSize=12;" parent="71" vertex="1" connectable="0">
                    <mxGeometry x="-0.5764" y="-2" relative="1" as="geometry">
                        <mxPoint x="4" y="2" as="offset"/>
                    </mxGeometry>
                </mxCell>
                <mxCell id="20" value="&lt;span style=&quot;font-size: 15px&quot;&gt;Work type&lt;/span&gt;" style="ellipse;whiteSpace=wrap;html=1;fillColor=#f5f5f5;fontColor=#333333;strokeColor=#FF9999;strokeWidth=3;" parent="1" vertex="1">
                    <mxGeometry x="80" y="20" width="120" height="70" as="geometry"/>
                </mxCell>
                <mxCell id="92" style="edgeStyle=none;html=1;fontSize=15;fontColor=#FFFFFF;" parent="1" source="21" target="84" edge="1">
                    <mxGeometry relative="1" as="geometry"/>
                </mxCell>
                <mxCell id="95" value="&lt;span style=&quot;color: rgba(0 , 0 , 0 , 0) ; font-family: monospace ; font-size: 0px&quot;&gt;%3CmxGraphModel%3E%3Croot%3E%3CmxCell%20id%3D%220%22%2F%3E%3CmxCell%20id%3D%221%22%20parent%3D%220%22%2F%3E%3CmxCell%20id%3D%222%22%20value%3D%22%26lt%3Bspan%20style%3D%26quot%3Bcolor%3A%20rgba(0%20%2C%200%20%2C%200%20%2C%200)%20%3B%20font-family%3A%20monospace%20%3B%20font-size%3A%200px%26quot%3B%26gt%3Bd%26lt%3B%2Fspan%26gt%3B%22%20style%3D%22text%3Bhtml%3D1%3Balign%3Dcenter%3BverticalAlign%3Dmiddle%3Bresizable%3D0%3Bpoints%3D%5B%5D%3Bautosize%3D1%3BstrokeColor%3Dnone%3BfillColor%3Dnone%3BfontSize%3D15%3BfontColor%3D%23FFFFFF%3B%22%20vertex%3D%221%22%20parent%3D%221%22%3E%3CmxGeometry%20x%3D%22550%22%20y%3D%22455%22%20width%3D%2220%22%20height%3D%2230%22%20as%3D%22geometry%22%2F%3E%3C%2FmxCell%3E%3C%2Froot%3E%3C%2FmxGraphModel%3E&lt;/span&gt;" style="edgeLabel;html=1;align=center;verticalAlign=middle;resizable=0;points=[];fontSize=15;fontColor=#FFFFFF;" parent="92" vertex="1" connectable="0">
                    <mxGeometry x="0.2117" y="-1" relative="1" as="geometry">
                        <mxPoint x="1" as="offset"/>
                    </mxGeometry>
                </mxCell>
                <mxCell id="99" value="damages&lt;br&gt;blood vessels" style="edgeLabel;html=1;align=center;verticalAlign=middle;resizable=0;points=[];fontSize=15;fontColor=#FFFFFF;" parent="92" vertex="1" connectable="0">
                    <mxGeometry x="0.1734" y="2" relative="1" as="geometry">
                        <mxPoint as="offset"/>
                    </mxGeometry>
                </mxCell>
                <mxCell id="21" value="&lt;font style=&quot;font-size: 15px&quot;&gt;High blood pressure&lt;/font&gt;" style="ellipse;whiteSpace=wrap;html=1;fillColor=#647687;strokeColor=#FF9999;fontColor=#ffffff;strokeWidth=4;" parent="1" vertex="1">
                    <mxGeometry x="290" y="250" width="120" height="70" as="geometry"/>
                </mxCell>
                <mxCell id="89" style="edgeStyle=none;html=1;fontSize=15;fontColor=#FFFFFF;" parent="1" source="23" target="77" edge="1">
                    <mxGeometry relative="1" as="geometry"/>
                </mxCell>
                <mxCell id="90" style="edgeStyle=none;html=1;fontSize=15;fontColor=#FFFFFF;" parent="1" source="23" target="84" edge="1">
                    <mxGeometry relative="1" as="geometry"/>
                </mxCell>
                <mxCell id="91" value="damages&lt;br&gt;blood vessels" style="edgeLabel;html=1;align=center;verticalAlign=middle;resizable=0;points=[];fontSize=15;fontColor=#FFFFFF;" parent="90" vertex="1" connectable="0">
                    <mxGeometry x="-0.4824" y="-1" relative="1" as="geometry">
                        <mxPoint x="-8" y="29" as="offset"/>
                    </mxGeometry>
                </mxCell>
                <mxCell id="23" value="&lt;span style=&quot;font-size: 15px&quot;&gt;High blood glucose&lt;br&gt;level&lt;br&gt;&lt;/span&gt;" style="ellipse;whiteSpace=wrap;html=1;fillColor=#647687;fontColor=#ffffff;strokeColor=#FF9999;strokeWidth=3;" parent="1" vertex="1">
                    <mxGeometry x="610" y="250" width="120" height="70" as="geometry"/>
                </mxCell>
                <mxCell id="29" style="edgeStyle=none;html=1;fontSize=15;" parent="1" source="26" target="27" edge="1">
                    <mxGeometry relative="1" as="geometry"/>
                </mxCell>
                <mxCell id="31" value="Type II" style="edgeLabel;html=1;align=center;verticalAlign=middle;resizable=0;points=[];fontSize=15;fontColor=#FFFFFF;" parent="29" vertex="1" connectable="0">
                    <mxGeometry x="0.3352" relative="1" as="geometry">
                        <mxPoint x="-15" y="-4" as="offset"/>
                    </mxGeometry>
                </mxCell>
                <mxCell id="30" style="edgeStyle=none;html=1;fontSize=15;" parent="1" source="26" target="21" edge="1">
                    <mxGeometry relative="1" as="geometry"/>
                </mxCell>
                <mxCell id="32" style="edgeStyle=none;html=1;fontSize=15;fontColor=#FFFFFF;" parent="1" source="26" target="11" edge="1">
                    <mxGeometry relative="1" as="geometry"/>
                </mxCell>
                <mxCell id="26" value="&lt;span style=&quot;font-size: 15px&quot;&gt;Obesity&lt;br&gt;&lt;/span&gt;" style="ellipse;whiteSpace=wrap;html=1;fillColor=#647687;fontColor=#ffffff;strokeColor=#FF9999;strokeWidth=3;" parent="1" vertex="1">
                    <mxGeometry x="320" y="50" width="120" height="70" as="geometry"/>
                </mxCell>
                <mxCell id="28" style="edgeStyle=none;html=1;fontSize=15;" parent="1" source="27" target="23" edge="1">
                    <mxGeometry relative="1" as="geometry"/>
                </mxCell>
                <mxCell id="27" value="&lt;span style=&quot;font-size: 15px&quot;&gt;Diabetes&lt;br&gt;&lt;/span&gt;" style="ellipse;whiteSpace=wrap;html=1;fillColor=#647687;fontColor=#ffffff;strokeColor=#314354;" parent="1" vertex="1">
                    <mxGeometry x="580" y="130" width="120" height="70" as="geometry"/>
                </mxCell>
                <mxCell id="37" style="edgeStyle=none;html=1;fontSize=15;fontColor=#FFFFFF;" parent="1" source="36" target="21" edge="1">
                    <mxGeometry relative="1" as="geometry"/>
                </mxCell>
                <mxCell id="93" style="edgeStyle=none;html=1;fontSize=15;fontColor=#FFFFFF;" parent="1" source="36" target="84" edge="1">
                    <mxGeometry relative="1" as="geometry"/>
                </mxCell>
                <mxCell id="94" value="Toxic chemicals&lt;br&gt;damages blood&lt;br&gt;vessels" style="edgeLabel;html=1;align=center;verticalAlign=middle;resizable=0;points=[];fontSize=15;fontColor=#FFFFFF;" parent="93" vertex="1" connectable="0">
                    <mxGeometry x="-0.6052" relative="1" as="geometry">
                        <mxPoint y="27" as="offset"/>
                    </mxGeometry>
                </mxCell>
                <mxCell id="36" value="&lt;span style=&quot;font-size: 15px&quot;&gt;Smoking&lt;br&gt;&lt;/span&gt;" style="ellipse;whiteSpace=wrap;html=1;fillColor=#647687;fontColor=#ffffff;strokeColor=#FF9999;strokeWidth=3;" parent="1" vertex="1">
                    <mxGeometry x="430" y="160" width="120" height="70" as="geometry"/>
                </mxCell>
                <mxCell id="62" style="edgeStyle=none;html=1;fontSize=15;fontColor=#FFFFFF;" parent="1" source="40" target="60" edge="1">
                    <mxGeometry relative="1" as="geometry"/>
                </mxCell>
                <mxCell id="40" value="&lt;span style=&quot;font-size: 15px&quot;&gt;Residence type&lt;/span&gt;" style="ellipse;whiteSpace=wrap;html=1;fillColor=#647687;fontColor=#ffffff;strokeColor=#FF9999;strokeWidth=3;" parent="1" vertex="1">
                    <mxGeometry x="-140" y="465" width="120" height="70" as="geometry"/>
                </mxCell>
                <mxCell id="64" style="edgeStyle=none;html=1;dashed=1;fontSize=15;fontColor=#FFFFFF;" parent="1" source="42" target="63" edge="1">
                    <mxGeometry relative="1" as="geometry"/>
                </mxCell>
                <mxCell id="65" value="women&lt;br&gt;statistically&lt;br&gt;have" style="edgeLabel;html=1;align=center;verticalAlign=middle;resizable=0;points=[];fontSize=15;fontColor=#FFFFFF;" parent="64" vertex="1" connectable="0">
                    <mxGeometry x="0.2287" y="2" relative="1" as="geometry">
                        <mxPoint x="-1" y="-15" as="offset"/>
                    </mxGeometry>
                </mxCell>
                <mxCell id="42" value="&lt;span style=&quot;font-size: 15px&quot;&gt;Gender&lt;/span&gt;" style="ellipse;whiteSpace=wrap;html=1;fillColor=#f5f5f5;fontColor=#333333;strokeColor=#FF9999;strokeWidth=3;" parent="1" vertex="1">
                    <mxGeometry x="-190" y="100" width="120" height="70" as="geometry"/>
                </mxCell>
                <mxCell id="44" value="&lt;span style=&quot;color: rgba(0 , 0 , 0 , 0) ; font-family: monospace ; font-size: 0px&quot;&gt;d&lt;/span&gt;" style="text;html=1;align=center;verticalAlign=middle;resizable=0;points=[];autosize=1;strokeColor=none;fillColor=none;fontSize=15;fontColor=#FFFFFF;" parent="1" vertex="1">
                    <mxGeometry x="550" y="455" width="20" height="30" as="geometry"/>
                </mxCell>
                <mxCell id="73" style="edgeStyle=none;html=1;" parent="1" source="54" target="19" edge="1">
                    <mxGeometry relative="1" as="geometry"/>
                </mxCell>
                <mxCell id="75" style="edgeStyle=none;html=1;" parent="1" source="54" target="63" edge="1">
                    <mxGeometry relative="1" as="geometry"/>
                </mxCell>
                <mxCell id="78" style="edgeStyle=none;html=1;fontSize=15;fontColor=#FFFFFF;" parent="1" source="54" target="77" edge="1">
                    <mxGeometry relative="1" as="geometry"/>
                </mxCell>
                <mxCell id="54" value="&lt;span style=&quot;font-size: 15px&quot;&gt;Age&lt;br&gt;&lt;/span&gt;" style="ellipse;whiteSpace=wrap;html=1;fillColor=#647687;fontColor=#ffffff;strokeColor=#FF9999;strokeWidth=3;" parent="1" vertex="1">
                    <mxGeometry y="370" width="120" height="70" as="geometry"/>
                </mxCell>
                <mxCell id="61" style="edgeStyle=none;html=1;fontSize=15;fontColor=#FFFFFF;" parent="1" source="60" target="83" edge="1">
                    <mxGeometry relative="1" as="geometry">
                        <mxPoint x="321.33185515535524" y="512.3335181055804" as="targetPoint"/>
                    </mxGeometry>
                </mxCell>
                <mxCell id="60" value="&lt;font style=&quot;font-size: 15px&quot;&gt;Air pollution&lt;br&gt;exposure&lt;br&gt;&lt;/font&gt;" style="ellipse;whiteSpace=wrap;html=1;fillColor=#647687;fontColor=#ffffff;strokeColor=#314354;" parent="1" vertex="1">
                    <mxGeometry x="70" y="485" width="120" height="70" as="geometry"/>
                </mxCell>
                <mxCell id="63" value="&lt;span style=&quot;font-size: 15px&quot;&gt;higher life expectancy&lt;/span&gt;" style="ellipse;whiteSpace=wrap;html=1;fillColor=#f5f5f5;fontColor=#333333;strokeColor=#666666;" parent="1" vertex="1">
                    <mxGeometry x="-60" y="240" width="120" height="70" as="geometry"/>
                </mxCell>
                <mxCell id="67" value="because of their longer life expectancy and much higher incidence at &lt;br style=&quot;font-size: 13px&quot;&gt;older ages, women have more stroke events than men. With the exception &lt;br style=&quot;font-size: 13px&quot;&gt;of subarachnoid haemorrhage, there is little evidence of sex differences&lt;br style=&quot;font-size: 13px&quot;&gt; in stroke subtype or severity&lt;br&gt;&amp;nbsp;https://www.ncbi.nlm.nih.gov/pmc/articles/PMC2665267/" style="text;html=1;align=center;verticalAlign=middle;resizable=0;points=[];autosize=1;strokeColor=none;fillColor=none;fontSize=13;fontColor=#FFFFFF;" parent="1" vertex="1">
                    <mxGeometry x="-450" y="10" width="440" height="90" as="geometry"/>
                </mxCell>
                <mxCell id="69" value="(not all cities are polluted...&lt;br&gt;bias?)" style="text;html=1;align=center;verticalAlign=middle;resizable=0;points=[];autosize=1;strokeColor=none;fillColor=none;fontSize=13;fontColor=#FFFFFF;" parent="1" vertex="1">
                    <mxGeometry x="-165" y="550" width="170" height="40" as="geometry"/>
                </mxCell>
                <mxCell id="74" style="edgeStyle=none;html=1;exitX=0;exitY=0.5;exitDx=0;exitDy=0;entryX=0;entryY=1;entryDx=0;entryDy=0;" parent="1" source="63" target="63" edge="1">
                    <mxGeometry relative="1" as="geometry"/>
                </mxCell>
                <mxCell id="80" style="edgeStyle=none;html=1;fontSize=15;fontColor=#FFFFFF;" parent="1" source="77" target="83" edge="1">
                    <mxGeometry relative="1" as="geometry">
                        <mxPoint x="334.44460385808225" y="482.22230192904135" as="targetPoint"/>
                    </mxGeometry>
                </mxCell>
                <mxCell id="77" value="&lt;font style=&quot;font-size: 15px&quot;&gt;&lt;span style=&quot;color: rgb(240 , 240 , 240)&quot;&gt;Plaque buildup&lt;/span&gt;&lt;br style=&quot;color: rgb(240 , 240 , 240)&quot;&gt;&lt;span style=&quot;color: rgb(240 , 240 , 240)&quot;&gt;(&lt;/span&gt;&lt;a href=&quot;https://www.webmd.com/heart-disease/what-is-atherosclerosis&quot;&gt;&lt;font color=&quot;#ffffff&quot;&gt;&lt;i&gt;atherosclerosis&lt;/i&gt;&lt;/font&gt;&lt;/a&gt;&lt;span style=&quot;color: rgb(240 , 240 , 240)&quot;&gt;)&lt;/span&gt;&lt;br&gt;&lt;/font&gt;" style="ellipse;whiteSpace=wrap;html=1;fillColor=#647687;fontColor=#ffffff;strokeColor=#314354;" parent="1" vertex="1">
                    <mxGeometry x="190" y="360" width="120" height="70" as="geometry"/>
                </mxCell>
                <mxCell id="82" style="edgeStyle=none;html=1;fontSize=15;fontColor=#FFFFFF;" parent="1" source="81" target="27" edge="1">
                    <mxGeometry relative="1" as="geometry"/>
                </mxCell>
                <mxCell id="81" value="&lt;span style=&quot;font-size: 15px&quot;&gt;Family history&lt;br&gt;&lt;/span&gt;" style="ellipse;whiteSpace=wrap;html=1;fillColor=#647687;fontColor=#ffffff;strokeColor=#314354;" parent="1" vertex="1">
                    <mxGeometry x="590" y="10" width="120" height="70" as="geometry"/>
                </mxCell>
                <mxCell id="87" style="edgeStyle=none;html=1;fontSize=15;fontColor=#FFFFFF;" parent="1" source="83" target="4" edge="1">
                    <mxGeometry relative="1" as="geometry"/>
                </mxCell>
                <mxCell id="88" value="&lt;span&gt;ischemic stroke&lt;/span&gt;" style="edgeLabel;html=1;align=center;verticalAlign=middle;resizable=0;points=[];fontSize=15;fontColor=#FFFFFF;" parent="87" vertex="1" connectable="0">
                    <mxGeometry x="-0.1932" relative="1" as="geometry">
                        <mxPoint as="offset"/>
                    </mxGeometry>
                </mxCell>
                <mxCell id="83" value="&lt;span class=&quot;ILfuVd&quot; lang=&quot;en&quot;&gt;&lt;span class=&quot;hgKElc&quot;&gt;&lt;font style=&quot;font-size: 15px&quot;&gt;blocked artery&lt;/font&gt;&lt;/span&gt;&lt;/span&gt;" style="ellipse;whiteSpace=wrap;html=1;fillColor=#6d8764;strokeColor=#3A5431;fontColor=#ffffff;" parent="1" vertex="1">
                    <mxGeometry x="280" y="490" width="120" height="70" as="geometry"/>
                </mxCell>
                <mxCell id="85" style="edgeStyle=none;html=1;fontSize=15;fontColor=#FFFFFF;" parent="1" source="84" target="4" edge="1">
                    <mxGeometry relative="1" as="geometry">
                        <mxPoint x="620" y="490" as="targetPoint"/>
                    </mxGeometry>
                </mxCell>
                <mxCell id="86" value="&lt;span&gt;hemorrhagic stroke&lt;/span&gt;" style="edgeLabel;html=1;align=center;verticalAlign=middle;resizable=0;points=[];fontSize=15;fontColor=#FFFFFF;" parent="85" vertex="1" connectable="0">
                    <mxGeometry x="-0.2162" y="-1" relative="1" as="geometry">
                        <mxPoint as="offset"/>
                    </mxGeometry>
                </mxCell>
                <mxCell id="84" value="&lt;span class=&quot;ILfuVd&quot; lang=&quot;en&quot;&gt;&lt;span class=&quot;hgKElc&quot;&gt;&lt;font style=&quot;font-size: 15px&quot;&gt;leaking/bursting artery&amp;nbsp;&lt;/font&gt;&lt;/span&gt;&lt;/span&gt;" style="ellipse;whiteSpace=wrap;html=1;fillColor=#6d8764;strokeColor=#3A5431;fontColor=#ffffff;" parent="1" vertex="1">
                    <mxGeometry x="460" y="415" width="120" height="70" as="geometry"/>
                </mxCell>
                <mxCell id="96" value="&lt;span style=&quot;color: rgba(0 , 0 , 0 , 0) ; font-family: monospace ; font-size: 0px&quot;&gt;d&lt;/span&gt;" style="text;html=1;align=center;verticalAlign=middle;resizable=0;points=[];autosize=1;strokeColor=none;fillColor=none;fontSize=15;fontColor=#FFFFFF;" parent="1" vertex="1">
                    <mxGeometry x="560" y="465" width="20" height="30" as="geometry"/>
                </mxCell>
            </root>
        </mxGraphModel>
    </diagram>
</mxfile>